PathFileType	4	(X/Y/Z)	C:\Users\WrightLab\Desktop\Jo\P4V116.trc
DataRate	CameraRate	NumFrames	NumMarkers	Units	OrigDataRate	OrigDataStartFrame	OrigNumFrames
100.00	100.00	       9	19	mm	100.00	132	       525
Frame#	Time	Headset_Front			Headset_Back			Headset_Left			Headset_Right			Left_Shoulder			Right_Shoulder			Sternum			C7			Left Elbow			Right Elbow			Left Wrist			Right Wrist			Left ASIS			Right ASIS			S2			Left Knee			Right Knee			Left Ankle			Right Ankle			
		X1	Y1	Z1	X2	Y2	Z2	X3	Y3	Z3	X4	Y4	Z4	X5	Y5	Z5	X6	Y6	Z6	X7	Y7	Z7	X8	Y8	Z8	X9	Y9	Z9	X10	Y10	Z10	X11	Y11	Z11	X12	Y12	Z12	X13	Y13	Z13	X14	Y14	Z14	X15	Y15	Z15	X16	Y16	Z16	X17	Y17	Z17	X18	Y18	Z18	X19	Y19	Z19	

132	1.310	-412.86273	1507.95911	-545.90979	-433.54156	1636.84412	-302.47159										-720.27380	1513.41772	-517.14514	-545.49060	1442.29041	-428.69888	-577.89722	1544.58691	-588.32977	-286.82913	1155.07483	-535.72571	-883.10254	1175.34412	-514.40631	-335.99506	906.44977	-354.86993	-887.80219	899.28339	-377.18204	-413.90872	989.17664	-491.33554	-738.63617	1042.50769	-440.93784				-525.48975	509.62869	-473.00003	-802.35291	600.07068	-309.83752	-678.13513	38.74602	-545.15991	-836.08960	220.04587	-639.66803	
133	1.320	-412.13855	1508.09790	-541.10394	-432.55664	1637.42383	-293.11200										-719.53802	1513.86108	-506.05573	-543.05176	1443.26953	-420.31525	-577.76917	1545.29272	-578.81659	-286.05756	1155.47705	-528.87848	-883.07831	1176.45068	-503.17740	-336.61792	911.07092	-342.39389	-887.57147	898.02570	-369.94019	-411.23224	986.58856	-488.69684	-735.95428	1042.25122	-429.67822	-586.05359	1038.47461	-647.44452	-525.59375	509.23160	-471.94653	-793.61383	602.53052	-292.05002	-678.13513	38.74602	-545.15991	-842.36591	211.03461	-607.67694	
134	1.330	-411.61279	1507.68152	-533.88531	-431.29947	1637.83496	-282.88037										-717.98926	1514.46680	-494.33041	-541.27478	1444.02637	-410.19897	-577.73517	1545.41309	-569.58514	-285.57791	1156.60681	-521.32397	-882.31451	1177.09216	-491.58398	-337.09479	914.71307	-330.23495	-887.05817	897.89825	-361.86880	-409.89438	987.35529	-483.87494	-732.88153	1042.25134	-417.05930	-589.08636	1038.45544	-636.83813	-525.58838	509.79025	-470.14633	-785.63861	605.07306	-276.20752	-678.13513	38.74602	-545.15991	-848.54724	201.80551	-573.56104	
135	1.340	-411.18726	1506.78186	-523.25287	-429.81253	1638.65918	-273.83884										-717.00677	1515.00586	-482.59793	-538.26166	1443.94617	-401.18311	-577.30768	1545.90112	-560.78778	-285.03278	1156.87292	-512.88715	-880.75684	1177.91809	-480.83170	-337.30322	918.71216	-318.11420	-886.22186	897.61609	-354.24100	-408.76984	987.39935	-477.20844	-729.44006	1046.55530	-395.86871				-524.95093	509.85846	-468.15369	-777.47443	606.01556	-259.06845	-677.20642	39.10518	-544.76782	-851.71112	191.99028	-541.37439	
136	1.350	-409.35004	1507.92078	-516.55511	-428.28247	1638.89417	-264.54617										-715.37286	1515.39661	-470.80511	-536.54059	1444.45703	-392.14240	-577.00140	1546.31824	-550.71808	-284.39871	1156.72949	-505.06931	-879.96051	1178.26660	-469.54068	-337.17386	922.91486	-306.89459	-885.37396	896.69891	-345.24133	-407.91510	987.27008	-472.87527	-726.54193	1042.89856	-392.80722	-593.93201	1039.69482	-616.68292	-524.26135	509.95209	-465.94070	-769.27008	607.65833	-243.90100	-677.20642	39.10518	-544.76782	-853.81390	182.72647	-509.44128	
137	1.360	-409.50421	1508.45605	-511.69781	-426.63397	1639.22778	-254.83922										-713.85352	1515.48108	-458.68442	-533.81226	1443.62158	-383.73932	-576.28253	1546.43140	-540.91443	-283.39536	1157.14331	-497.52509	-878.86298	1179.19617	-457.54593	-337.42920	926.12451	-295.02414	-883.25336	895.66791	-336.20679	-407.01749	987.76935	-466.51761	-722.10980	1046.57556	-369.57224	-596.18573	1040.23279	-606.81311	-523.53204	509.98083	-463.07602	-761.00189	608.37158	-228.87900	-677.08990	39.34162	-544.65179	-855.84857	171.14461	-471.06335	
138	1.370	-408.54254	1507.76233	-503.40680	-424.83621	1639.10059	-244.25514										-711.91394	1515.87439	-447.45679	-529.87555	1444.72156	-374.57709	-575.74536	1546.38379	-531.30927	-282.54031	1157.09583	-489.83905	-877.19391	1179.99780	-446.51889	-337.40555	929.98834	-283.94897	-881.82135	895.53339	-327.94647	-405.61438	987.60681	-459.42068	-719.31915	1047.20032	-358.91385				-523.56012	509.61545	-460.53601	-753.08020	609.40161	-215.80913	-675.96741	39.99258	-544.10217	-855.29980	160.75488	-436.23886	
139	1.380	-406.64972	1507.59998	-495.21942	-422.91187	1639.05603	-233.95685										-709.90454	1516.19556	-435.36920	-526.77130	1444.30164	-365.48422	-575.01898	1546.48071	-521.41260	-282.11316	1157.20081	-481.96060	-875.59149	1180.49707	-435.18558	-337.51755	933.47095	-273.09879	-880.11017	893.68671	-321.55280	-405.02054	987.26685	-453.51950	-715.94025	1045.81885	-349.40060				-522.76501	509.54453	-457.51993	-744.63177	608.50739	-203.28697	-676.93878	39.99613	-544.38019	-852.38678	151.39113	-401.52618	
140	1.390	-405.94138	1507.31677	-490.29929	-420.96527	1638.66931	-224.19609										-707.83948	1516.29565	-424.33075	-525.30090	1443.11475	-356.21539	-574.48224	1546.71472	-511.82306	-281.41327	1156.44617	-475.61371	-873.86792	1180.70557	-423.91107	-337.21350	936.77405	-261.89481	-878.54230	894.20459	-310.42038	-404.54651	986.09967	-447.80258	-711.82129	1046.31470	-333.80432	-601.55298	1040.58667	-575.71765	-522.72784	509.35962	-453.38025	-735.85675	608.80402	-189.62251	-677.07831	40.71496	-543.59528	-848.53790	141.71918	-365.94885	
